<svg xmlns="http://www.w3.org/2000/svg" viewBox="0 0 1200 160" width="1200" height="160" role="img" aria-label="Interactive NotebookLM">
<defs>
<linearGradient id="bg" x1="0" y1="0" x2="1" y2="0.6"><stop offset="0%" stop-color="#05070f"/><stop offset="45%" stop-color="#0a1330"/><stop offset="100%" stop-color="#122a63"/></linearGradient>
<radialGradient id="glow" cx="0.74" cy="0.5" r="0.6"><stop offset="0%" stop-color="#3f7bff" stop-opacity="0.40"/><stop offset="100%" stop-color="#3f7bff" stop-opacity="0"/></radialGradient>
<linearGradient id="scrim" x1="0" y1="0" x2="1" y2="0"><stop offset="0%" stop-color="#05070f" stop-opacity="0.93"/><stop offset="55%" stop-color="#05070f" stop-opacity="0.5"/><stop offset="100%" stop-color="#05070f" stop-opacity="0"/></linearGradient>
<clipPath id="round"><rect x="0" y="0" width="1200" height="160" rx="26" ry="26"/></clipPath>
</defs>
<g clip-path="url(#round)">
<rect width="1200" height="160" fill="url(#bg)"/><rect width="1200" height="160" fill="url(#glow)"/>
<line x1="1121.8" y1="32.0" x2="1099.7" y2="34.0" stroke="#6fa8ff" stroke-width="0.9" stroke-opacity="0.47"/><line x1="1121.8" y1="32.0" x2="1093.0" y2="23.2" stroke="#6fa8ff" stroke-width="0.9" stroke-opacity="0.44"/><line x1="1121.8" y1="32.0" x2="1104.6" y2="64.5" stroke="#6fa8ff" stroke-width="0.9" stroke-opacity="0.42"/><line x1="837.9" y1="49.0" x2="835.2" y2="55.2" stroke="#6fa8ff" stroke-width="0.9" stroke-opacity="0.53"/><line x1="837.9" y1="49.0" x2="856.6" y2="33.6" stroke="#6fa8ff" stroke-width="0.9" stroke-opacity="0.46"/><line x1="837.9" y1="49.0" x2="834.9" y2="24.7" stroke="#6fa8ff" stroke-width="0.9" stroke-opacity="0.46"/><line x1="1193.1" y1="55.6" x2="1191.0" y2="61.4" stroke="#6fa8ff" stroke-width="0.9" stroke-opacity="0.53"/><line x1="1193.1" y1="55.6" x2="1179.2" y2="56.0" stroke="#6fa8ff" stroke-width="0.9" stroke-opacity="0.5"/><line x1="1193.1" y1="55.6" x2="1206.8" y2="60.2" stroke="#6fa8ff" stroke-width="0.9" stroke-opacity="0.5"/><line x1="178.7" y1="80.1" x2="158.3" y2="92.4" stroke="#6fa8ff" stroke-width="0.9" stroke-opacity="0.46"/><line x1="178.7" y1="80.1" x2="157.8" y2="93.9" stroke="#6fa8ff" stroke-width="0.9" stroke-opacity="0.46"/><line x1="178.7" y1="80.1" x2="209.9" y2="102.4" stroke="#6fa8ff" stroke-width="0.9" stroke-opacity="0.41"/><line x1="634.9" y1="75.1" x2="644.2" y2="59.1" stroke="#6fa8ff" stroke-width="0.9" stroke-opacity="0.48"/><line x1="634.9" y1="75.1" x2="677.3" y2="56.9" stroke="#6fa8ff" stroke-width="0.9" stroke-opacity="0.38"/><line x1="634.9" y1="75.1" x2="584.6" y2="88.6" stroke="#6fa8ff" stroke-width="0.9" stroke-opacity="0.36"/><line x1="547.5" y1="97.9" x2="544.4" y2="89.5" stroke="#6fa8ff" stroke-width="0.9" stroke-opacity="0.52"/><line x1="547.5" y1="97.9" x2="569.4" y2="106.1" stroke="#6fa8ff" stroke-width="0.9" stroke-opacity="0.46"/><line x1="547.5" y1="97.9" x2="571.1" y2="89.5" stroke="#6fa8ff" stroke-width="0.9" stroke-opacity="0.46"/><line x1="1212.1" y1="100.5" x2="1190.8" y2="108.5" stroke="#6fa8ff" stroke-width="0.9" stroke-opacity="0.47"/><line x1="1212.1" y1="100.5" x2="1192.9" y2="81.8" stroke="#6fa8ff" stroke-width="0.9" stroke-opacity="0.45"/><line x1="1212.1" y1="100.5" x2="1191.0" y2="117.4" stroke="#6fa8ff" stroke-width="0.9" stroke-opacity="0.45"/><line x1="372.8" y1="67.3" x2="368.4" y2="74.4" stroke="#6fa8ff" stroke-width="0.9" stroke-opacity="0.52"/><line x1="372.8" y1="67.3" x2="349.5" y2="80.8" stroke="#6fa8ff" stroke-width="0.9" stroke-opacity="0.45"/><line x1="372.8" y1="67.3" x2="325.5" y2="85.8" stroke="#6fa8ff" stroke-width="0.9" stroke-opacity="0.36"/><line x1="340.5" y1="107.2" x2="320.0" y2="95.8" stroke="#6fa8ff" stroke-width="0.9" stroke-opacity="0.46"/><line x1="340.5" y1="107.2" x2="325.5" y2="85.8" stroke="#6fa8ff" stroke-width="0.9" stroke-opacity="0.45"/><line x1="340.5" y1="107.2" x2="349.5" y2="80.8" stroke="#6fa8ff" stroke-width="0.9" stroke-opacity="0.45"/><line x1="1026.3" y1="30.2" x2="1067.7" y2="39.0" stroke="#6fa8ff" stroke-width="0.9" stroke-opacity="0.39"/><line x1="1026.3" y1="30.2" x2="1058.6" y2="62.3" stroke="#6fa8ff" stroke-width="0.9" stroke-opacity="0.38"/><line x1="1026.3" y1="30.2" x2="1014.6" y2="78.4" stroke="#6fa8ff" stroke-width="0.9" stroke-opacity="0.37"/><line x1="1163.4" y1="89.8" x2="1170.8" y2="87.4" stroke="#6fa8ff" stroke-width="0.9" stroke-opacity="0.52"/><line x1="1163.4" y1="89.8" x2="1161.9" y2="65.3" stroke="#6fa8ff" stroke-width="0.9" stroke-opacity="0.46"/><line x1="1163.4" y1="89.8" x2="1192.9" y2="81.8" stroke="#6fa8ff" stroke-width="0.9" stroke-opacity="0.44"/><line x1="1104.6" y1="64.5" x2="1102.4" y2="64.2" stroke="#6fa8ff" stroke-width="0.9" stroke-opacity="0.54"/><line x1="1104.6" y1="64.5" x2="1099.7" y2="34.0" stroke="#6fa8ff" stroke-width="0.9" stroke-opacity="0.44"/><line x1="1104.6" y1="64.5" x2="1132.1" y2="87.4" stroke="#6fa8ff" stroke-width="0.9" stroke-opacity="0.42"/><line x1="1190.8" y1="108.5" x2="1191.0" y2="117.4" stroke="#6fa8ff" stroke-width="0.9" stroke-opacity="0.52"/><line x1="1190.8" y1="108.5" x2="1192.9" y2="81.8" stroke="#6fa8ff" stroke-width="0.9" stroke-opacity="0.45"/><line x1="942.6" y1="67.3" x2="980.2" y2="57.9" stroke="#6fa8ff" stroke-width="0.9" stroke-opacity="0.41"/><line x1="942.6" y1="67.3" x2="965.3" y2="25.7" stroke="#6fa8ff" stroke-width="0.9" stroke-opacity="0.38"/><line x1="942.6" y1="67.3" x2="891.6" y2="55.4" stroke="#6fa8ff" stroke-width="0.9" stroke-opacity="0.36"/><line x1="1170.8" y1="87.4" x2="1192.9" y2="81.8" stroke="#6fa8ff" stroke-width="0.9" stroke-opacity="0.47"/><line x1="1170.8" y1="87.4" x2="1161.9" y2="65.3" stroke="#6fa8ff" stroke-width="0.9" stroke-opacity="0.46"/><line x1="109.3" y1="120.1" x2="157.8" y2="93.9" stroke="#6fa8ff" stroke-width="0.9" stroke-opacity="0.35"/><line x1="109.3" y1="120.1" x2="158.3" y2="92.4" stroke="#6fa8ff" stroke-width="0.9" stroke-opacity="0.34"/><line x1="178.7" y1="80.1" x2="109.3" y2="120.1" stroke="#6fa8ff" stroke-width="0.9" stroke-opacity="0.26"/><line x1="965.3" y1="25.7" x2="980.2" y2="57.9" stroke="#6fa8ff" stroke-width="0.9" stroke-opacity="0.42"/><line x1="1026.3" y1="30.2" x2="965.3" y2="25.7" stroke="#6fa8ff" stroke-width="0.9" stroke-opacity="0.33"/><line x1="246.8" y1="99.2" x2="247.3" y2="112.8" stroke="#6fa8ff" stroke-width="0.9" stroke-opacity="0.5"/><line x1="246.8" y1="99.2" x2="209.9" y2="102.4" stroke="#6fa8ff" stroke-width="0.9" stroke-opacity="0.41"/><line x1="246.8" y1="99.2" x2="234.2" y2="141.5" stroke="#6fa8ff" stroke-width="0.9" stroke-opacity="0.39"/><line x1="1179.2" y1="56.0" x2="1176.2" y2="58.1" stroke="#6fa8ff" stroke-width="0.9" stroke-opacity="0.54"/><line x1="1179.2" y1="56.0" x2="1191.0" y2="61.4" stroke="#6fa8ff" stroke-width="0.9" stroke-opacity="0.5"/><line x1="1035.9" y1="108.1" x2="1037.6" y2="81.7" stroke="#6fa8ff" stroke-width="0.9" stroke-opacity="0.45"/><line x1="1035.9" y1="108.1" x2="1047.1" y2="81.1" stroke="#6fa8ff" stroke-width="0.9" stroke-opacity="0.44"/><line x1="1035.9" y1="108.1" x2="1018.2" y2="84.2" stroke="#6fa8ff" stroke-width="0.9" stroke-opacity="0.44"/><line x1="247.3" y1="112.8" x2="234.2" y2="141.5" stroke="#6fa8ff" stroke-width="0.9" stroke-opacity="0.43"/><line x1="247.3" y1="112.8" x2="209.9" y2="102.4" stroke="#6fa8ff" stroke-width="0.9" stroke-opacity="0.41"/><line x1="349.5" y1="80.8" x2="368.4" y2="74.4" stroke="#6fa8ff" stroke-width="0.9" stroke-opacity="0.48"/><line x1="349.5" y1="80.8" x2="325.5" y2="85.8" stroke="#6fa8ff" stroke-width="0.9" stroke-opacity="0.46"/><line x1="442.2" y1="122.9" x2="503.4" y2="150.7" stroke="#6fa8ff" stroke-width="0.9" stroke-opacity="0.3"/><line x1="442.2" y1="122.9" x2="368.4" y2="74.4" stroke="#6fa8ff" stroke-width="0.9" stroke-opacity="0.23"/><line x1="372.8" y1="67.3" x2="442.2" y2="122.9" stroke="#6fa8ff" stroke-width="0.9" stroke-opacity="0.22"/><line x1="1102.4" y1="64.2" x2="1099.7" y2="34.0" stroke="#6fa8ff" stroke-width="0.9" stroke-opacity="0.44"/><line x1="1102.4" y1="64.2" x2="1070.1" y2="77.4" stroke="#6fa8ff" stroke-width="0.9" stroke-opacity="0.42"/><line x1="1070.1" y1="77.4" x2="1066.6" y2="81.0" stroke="#6fa8ff" stroke-width="0.9" stroke-opacity="0.53"/><line x1="1070.1" y1="77.4" x2="1058.6" y2="62.3" stroke="#6fa8ff" stroke-width="0.9" stroke-opacity="0.48"/><line x1="1070.1" y1="77.4" x2="1047.1" y2="81.1" stroke="#6fa8ff" stroke-width="0.9" stroke-opacity="0.46"/><line x1="547.5" y1="97.9" x2="503.4" y2="150.7" stroke="#6fa8ff" stroke-width="0.9" stroke-opacity="0.3"/><line x1="503.4" y1="150.7" x2="544.4" y2="89.5" stroke="#6fa8ff" stroke-width="0.9" stroke-opacity="0.28"/><line x1="718.7" y1="74.5" x2="702.2" y2="80.1" stroke="#6fa8ff" stroke-width="0.9" stroke-opacity="0.49"/><line x1="718.7" y1="74.5" x2="729.4" y2="88.2" stroke="#6fa8ff" stroke-width="0.9" stroke-opacity="0.49"/><line x1="718.7" y1="74.5" x2="740.6" y2="71.7" stroke="#6fa8ff" stroke-width="0.9" stroke-opacity="0.47"/><line x1="740.6" y1="71.7" x2="754.7" y2="61.6" stroke="#6fa8ff" stroke-width="0.9" stroke-opacity="0.49"/><line x1="740.6" y1="71.7" x2="729.4" y2="88.2" stroke="#6fa8ff" stroke-width="0.9" stroke-opacity="0.48"/><line x1="533.2" y1="73.1" x2="544.4" y2="89.5" stroke="#6fa8ff" stroke-width="0.9" stroke-opacity="0.48"/><line x1="547.5" y1="97.9" x2="533.2" y2="73.1" stroke="#6fa8ff" stroke-width="0.9" stroke-opacity="0.45"/><line x1="533.2" y1="73.1" x2="571.1" y2="89.5" stroke="#6fa8ff" stroke-width="0.9" stroke-opacity="0.4"/><line x1="688.8" y1="26.1" x2="677.3" y2="56.9" stroke="#6fa8ff" stroke-width="0.9" stroke-opacity="0.43"/><line x1="688.8" y1="26.1" x2="644.2" y2="59.1" stroke="#6fa8ff" stroke-width="0.9" stroke-opacity="0.35"/><line x1="688.8" y1="26.1" x2="702.2" y2="80.1" stroke="#6fa8ff" stroke-width="0.9" stroke-opacity="0.35"/><line x1="1191.0" y1="117.4" x2="1192.9" y2="81.8" stroke="#6fa8ff" stroke-width="0.9" stroke-opacity="0.42"/><line x1="835.2" y1="55.2" x2="863.4" y2="52.1" stroke="#6fa8ff" stroke-width="0.9" stroke-opacity="0.45"/><line x1="835.2" y1="55.2" x2="856.6" y2="33.6" stroke="#6fa8ff" stroke-width="0.9" stroke-opacity="0.44"/><line x1="891.6" y1="55.4" x2="880.7" y2="46.8" stroke="#6fa8ff" stroke-width="0.9" stroke-opacity="0.5"/><line x1="891.6" y1="55.4" x2="863.4" y2="52.1" stroke="#6fa8ff" stroke-width="0.9" stroke-opacity="0.45"/><line x1="891.6" y1="55.4" x2="856.6" y2="33.6" stroke="#6fa8ff" stroke-width="0.9" stroke-opacity="0.4"/><line x1="1093.0" y1="23.2" x2="1099.7" y2="34.0" stroke="#6fa8ff" stroke-width="0.9" stroke-opacity="0.5"/><line x1="1093.0" y1="23.2" x2="1067.7" y2="39.0" stroke="#6fa8ff" stroke-width="0.9" stroke-opacity="0.44"/><line x1="1047.1" y1="81.1" x2="1037.6" y2="81.7" stroke="#6fa8ff" stroke-width="0.9" stroke-opacity="0.52"/><line x1="1047.1" y1="81.1" x2="1066.6" y2="81.0" stroke="#6fa8ff" stroke-width="0.9" stroke-opacity="0.48"/><line x1="1047.1" y1="81.1" x2="1058.6" y2="62.3" stroke="#6fa8ff" stroke-width="0.9" stroke-opacity="0.47"/><line x1="753.7" y1="24.4" x2="758.9" y2="29.0" stroke="#6fa8ff" stroke-width="0.9" stroke-opacity="0.52"/><line x1="753.7" y1="24.4" x2="754.7" y2="61.6" stroke="#6fa8ff" stroke-width="0.9" stroke-opacity="0.41"/><line x1="740.6" y1="71.7" x2="753.7" y2="24.4" stroke="#6fa8ff" stroke-width="0.9" stroke-opacity="0.37"/><line x1="1206.8" y1="60.2" x2="1191.0" y2="61.4" stroke="#6fa8ff" stroke-width="0.9" stroke-opacity="0.49"/><line x1="1206.8" y1="60.2" x2="1192.9" y2="81.8" stroke="#6fa8ff" stroke-width="0.9" stroke-opacity="0.46"/><line x1="880.7" y1="46.8" x2="863.4" y2="52.1" stroke="#6fa8ff" stroke-width="0.9" stroke-opacity="0.48"/><line x1="880.7" y1="46.8" x2="856.6" y2="33.6" stroke="#6fa8ff" stroke-width="0.9" stroke-opacity="0.45"/><line x1="576.6" y1="41.7" x2="584.6" y2="88.6" stroke="#6fa8ff" stroke-width="0.9" stroke-opacity="0.38"/><line x1="576.6" y1="41.7" x2="571.1" y2="89.5" stroke="#6fa8ff" stroke-width="0.9" stroke-opacity="0.37"/><line x1="533.2" y1="73.1" x2="576.6" y2="41.7" stroke="#6fa8ff" stroke-width="0.9" stroke-opacity="0.35"/><line x1="299.7" y1="68.8" x2="325.5" y2="85.8" stroke="#6fa8ff" stroke-width="0.9" stroke-opacity="0.44"/><line x1="299.7" y1="68.8" x2="320.0" y2="95.8" stroke="#6fa8ff" stroke-width="0.9" stroke-opacity="0.43"/><line x1="349.5" y1="80.8" x2="299.7" y2="68.8" stroke="#6fa8ff" stroke-width="0.9" stroke-opacity="0.36"/><line x1="209.9" y1="102.4" x2="234.2" y2="141.5" stroke="#6fa8ff" stroke-width="0.9" stroke-opacity="0.38"/><line x1="1067.7" y1="39.0" x2="1058.6" y2="62.3" stroke="#6fa8ff" stroke-width="0.9" stroke-opacity="0.46"/><line x1="1067.7" y1="39.0" x2="1099.7" y2="34.0" stroke="#6fa8ff" stroke-width="0.9" stroke-opacity="0.43"/><line x1="702.2" y1="80.1" x2="729.4" y2="88.2" stroke="#6fa8ff" stroke-width="0.9" stroke-opacity="0.45"/><line x1="702.2" y1="80.1" x2="677.3" y2="56.9" stroke="#6fa8ff" stroke-width="0.9" stroke-opacity="0.43"/><line x1="1014.6" y1="78.4" x2="1018.2" y2="84.2" stroke="#6fa8ff" stroke-width="0.9" stroke-opacity="0.52"/><line x1="1014.6" y1="78.4" x2="1037.6" y2="81.7" stroke="#6fa8ff" stroke-width="0.9" stroke-opacity="0.46"/><line x1="1047.1" y1="81.1" x2="1014.6" y2="78.4" stroke="#6fa8ff" stroke-width="0.9" stroke-opacity="0.43"/><line x1="325.5" y1="85.8" x2="320.0" y2="95.8" stroke="#6fa8ff" stroke-width="0.9" stroke-opacity="0.51"/><line x1="754.7" y1="61.6" x2="770.8" y2="72.6" stroke="#6fa8ff" stroke-width="0.9" stroke-opacity="0.48"/><line x1="754.7" y1="61.6" x2="758.9" y2="29.0" stroke="#6fa8ff" stroke-width="0.9" stroke-opacity="0.43"/><line x1="1192.9" y1="81.8" x2="1191.0" y2="61.4" stroke="#6fa8ff" stroke-width="0.9" stroke-opacity="0.47"/><line x1="1058.6" y1="62.3" x2="1066.6" y2="81.0" stroke="#6fa8ff" stroke-width="0.9" stroke-opacity="0.48"/><line x1="856.6" y1="33.6" x2="863.4" y2="52.1" stroke="#6fa8ff" stroke-width="0.9" stroke-opacity="0.48"/><line x1="856.6" y1="33.6" x2="834.9" y2="24.7" stroke="#6fa8ff" stroke-width="0.9" stroke-opacity="0.46"/><line x1="109.3" y1="120.1" x2="8.5" y2="140.8" stroke="#6fa8ff" stroke-width="0.9" stroke-opacity="0.17"/><line x1="544.4" y1="89.5" x2="571.1" y2="89.5" stroke="#6fa8ff" stroke-width="0.9" stroke-opacity="0.45"/><line x1="158.3" y1="92.4" x2="157.8" y2="93.9" stroke="#6fa8ff" stroke-width="0.9" stroke-opacity="0.54"/><line x1="209.9" y1="102.4" x2="158.3" y2="92.4" stroke="#6fa8ff" stroke-width="0.9" stroke-opacity="0.36"/><line x1="758.9" y1="29.0" x2="770.8" y2="72.6" stroke="#6fa8ff" stroke-width="0.9" stroke-opacity="0.38"/><line x1="826.9" y1="23.4" x2="834.9" y2="24.7" stroke="#6fa8ff" stroke-width="0.9" stroke-opacity="0.52"/><line x1="837.9" y1="49.0" x2="826.9" y2="23.4" stroke="#6fa8ff" stroke-width="0.9" stroke-opacity="0.45"/><line x1="856.6" y1="33.6" x2="826.9" y2="23.4" stroke="#6fa8ff" stroke-width="0.9" stroke-opacity="0.43"/><line x1="569.4" y1="106.1" x2="571.1" y2="89.5" stroke="#6fa8ff" stroke-width="0.9" stroke-opacity="0.49"/><line x1="569.4" y1="106.1" x2="584.6" y2="88.6" stroke="#6fa8ff" stroke-width="0.9" stroke-opacity="0.47"/><line x1="837.9" y1="49.0" x2="863.4" y2="52.1" stroke="#6fa8ff" stroke-width="0.9" stroke-opacity="0.46"/><line x1="349.5" y1="80.8" x2="320.0" y2="95.8" stroke="#6fa8ff" stroke-width="0.9" stroke-opacity="0.43"/><line x1="1163.4" y1="89.8" x2="1132.1" y2="87.4" stroke="#6fa8ff" stroke-width="0.9" stroke-opacity="0.43"/><line x1="1132.1" y1="87.4" x2="1146.4" y2="59.5" stroke="#6fa8ff" stroke-width="0.9" stroke-opacity="0.43"/><line x1="1132.1" y1="87.4" x2="1152.5" y2="60.4" stroke="#6fa8ff" stroke-width="0.9" stroke-opacity="0.43"/><line x1="1146.4" y1="59.5" x2="1152.5" y2="60.4" stroke="#6fa8ff" stroke-width="0.9" stroke-opacity="0.53"/><line x1="1146.4" y1="59.5" x2="1161.9" y2="65.3" stroke="#6fa8ff" stroke-width="0.9" stroke-opacity="0.49"/><line x1="1146.4" y1="59.5" x2="1176.2" y2="58.1" stroke="#6fa8ff" stroke-width="0.9" stroke-opacity="0.44"/><line x1="1191.0" y1="61.4" x2="1176.2" y2="58.1" stroke="#6fa8ff" stroke-width="0.9" stroke-opacity="0.49"/><line x1="1037.6" y1="81.7" x2="1018.2" y2="84.2" stroke="#6fa8ff" stroke-width="0.9" stroke-opacity="0.48"/><line x1="584.6" y1="88.6" x2="571.1" y2="89.5" stroke="#6fa8ff" stroke-width="0.9" stroke-opacity="0.5"/><line x1="547.5" y1="97.9" x2="584.6" y2="88.6" stroke="#6fa8ff" stroke-width="0.9" stroke-opacity="0.41"/><line x1="1014.6" y1="78.4" x2="980.2" y2="57.9" stroke="#6fa8ff" stroke-width="0.9" stroke-opacity="0.4"/><line x1="209.9" y1="102.4" x2="157.8" y2="93.9" stroke="#6fa8ff" stroke-width="0.9" stroke-opacity="0.36"/><line x1="1047.1" y1="81.1" x2="1018.2" y2="84.2" stroke="#6fa8ff" stroke-width="0.9" stroke-opacity="0.44"/><line x1="1152.5" y1="60.4" x2="1161.9" y2="65.3" stroke="#6fa8ff" stroke-width="0.9" stroke-opacity="0.51"/><line x1="1152.5" y1="60.4" x2="1176.2" y2="58.1" stroke="#6fa8ff" stroke-width="0.9" stroke-opacity="0.46"/><line x1="740.6" y1="71.7" x2="770.8" y2="72.6" stroke="#6fa8ff" stroke-width="0.9" stroke-opacity="0.44"/><line x1="770.8" y1="72.6" x2="729.4" y2="88.2" stroke="#6fa8ff" stroke-width="0.9" stroke-opacity="0.39"/><line x1="340.5" y1="107.2" x2="368.4" y2="74.4" stroke="#6fa8ff" stroke-width="0.9" stroke-opacity="0.39"/><line x1="1176.2" y1="58.1" x2="1161.9" y2="65.3" stroke="#6fa8ff" stroke-width="0.9" stroke-opacity="0.49"/><line x1="644.2" y1="59.1" x2="677.3" y2="56.9" stroke="#6fa8ff" stroke-width="0.9" stroke-opacity="0.43"/><circle cx="1121.8" cy="32.0" r="2.2" fill="#cfe3ff" fill-opacity="0.56"/><circle cx="837.9" cy="49.0" r="1.4" fill="#cfe3ff" fill-opacity="0.52"/><circle cx="1193.1" cy="55.6" r="1.8" fill="#cfe3ff" fill-opacity="0.61"/><circle cx="178.7" cy="80.1" r="2.2" fill="#cfe3ff" fill-opacity="0.66"/><circle cx="634.9" cy="75.1" r="2.2" fill="#cfe3ff" fill-opacity="0.62"/><circle cx="547.5" cy="97.9" r="2.8" fill="#cfe3ff" fill-opacity="0.55"/><circle cx="1212.1" cy="100.5" r="3.4" fill="#cfe3ff" fill-opacity="0.56"/><circle cx="372.8" cy="67.3" r="3.4" fill="#cfe3ff" fill-opacity="0.81"/><circle cx="340.5" cy="107.2" r="1.8" fill="#cfe3ff" fill-opacity="0.85"/><circle cx="1026.3" cy="30.2" r="2.8" fill="#cfe3ff" fill-opacity="0.51"/><circle cx="1163.4" cy="89.8" r="2.8" fill="#cfe3ff" fill-opacity="0.91"/><circle cx="1104.6" cy="64.5" r="3.4" fill="#cfe3ff" fill-opacity="0.58"/><circle cx="1190.8" cy="108.5" r="1.8" fill="#cfe3ff" fill-opacity="0.93"/><circle cx="942.6" cy="67.3" r="3.4" fill="#cfe3ff" fill-opacity="0.82"/><circle cx="1170.8" cy="87.4" r="3.4" fill="#cfe3ff" fill-opacity="0.61"/><circle cx="109.3" cy="120.1" r="3.4" fill="#cfe3ff" fill-opacity="0.81"/><circle cx="965.3" cy="25.7" r="1.8" fill="#cfe3ff" fill-opacity="0.62"/><circle cx="246.8" cy="99.2" r="2.2" fill="#cfe3ff" fill-opacity="0.95"/><circle cx="1179.2" cy="56.0" r="2.2" fill="#cfe3ff" fill-opacity="0.8"/><circle cx="1035.9" cy="108.1" r="1.8" fill="#cfe3ff" fill-opacity="0.61"/><circle cx="247.3" cy="112.8" r="1.8" fill="#cfe3ff" fill-opacity="0.94"/><circle cx="349.5" cy="80.8" r="1.8" fill="#cfe3ff" fill-opacity="0.94"/><circle cx="442.2" cy="122.9" r="1.8" fill="#cfe3ff" fill-opacity="0.86"/><circle cx="209.9" cy="102.4" r="2.2" fill="#cfe3ff" fill-opacity="0.69"/><circle cx="1102.4" cy="64.2" r="2.8" fill="#cfe3ff" fill-opacity="0.92"/><circle cx="1070.1" cy="77.4" r="2.8" fill="#cfe3ff" fill-opacity="0.77"/><circle cx="503.4" cy="150.7" r="1.8" fill="#cfe3ff" fill-opacity="0.6"/><circle cx="718.7" cy="74.5" r="1.4" fill="#cfe3ff" fill-opacity="0.55"/><circle cx="740.6" cy="71.7" r="3.4" fill="#cfe3ff" fill-opacity="0.84"/><circle cx="533.2" cy="73.1" r="2.2" fill="#cfe3ff" fill-opacity="0.56"/><circle cx="688.8" cy="26.1" r="3.4" fill="#cfe3ff" fill-opacity="0.82"/><circle cx="1191.0" cy="117.4" r="2.2" fill="#cfe3ff" fill-opacity="0.75"/><circle cx="835.2" cy="55.2" r="1.8" fill="#cfe3ff" fill-opacity="0.9"/><circle cx="891.6" cy="55.4" r="2.8" fill="#cfe3ff" fill-opacity="0.55"/><circle cx="1093.0" cy="23.2" r="1.4" fill="#cfe3ff" fill-opacity="0.88"/><circle cx="1047.1" cy="81.1" r="3.4" fill="#cfe3ff" fill-opacity="0.76"/><circle cx="753.7" cy="24.4" r="3.4" fill="#cfe3ff" fill-opacity="0.74"/><circle cx="1206.8" cy="60.2" r="1.8" fill="#cfe3ff" fill-opacity="0.59"/><circle cx="880.7" cy="46.8" r="1.8" fill="#cfe3ff" fill-opacity="0.59"/><circle cx="576.6" cy="41.7" r="1.8" fill="#cfe3ff" fill-opacity="1.0"/><circle cx="299.7" cy="68.8" r="1.4" fill="#cfe3ff" fill-opacity="0.79"/><circle cx="234.2" cy="141.5" r="1.8" fill="#cfe3ff" fill-opacity="0.98"/><circle cx="1067.7" cy="39.0" r="2.8" fill="#cfe3ff" fill-opacity="0.54"/><circle cx="702.2" cy="80.1" r="1.4" fill="#cfe3ff" fill-opacity="0.66"/><circle cx="1014.6" cy="78.4" r="2.8" fill="#cfe3ff" fill-opacity="0.71"/><circle cx="325.5" cy="85.8" r="2.2" fill="#cfe3ff" fill-opacity="0.72"/><circle cx="754.7" cy="61.6" r="3.4" fill="#cfe3ff" fill-opacity="0.69"/><circle cx="1192.9" cy="81.8" r="1.4" fill="#cfe3ff" fill-opacity="0.92"/><circle cx="1058.6" cy="62.3" r="1.8" fill="#cfe3ff" fill-opacity="0.7"/><circle cx="856.6" cy="33.6" r="2.2" fill="#cfe3ff" fill-opacity="0.87"/><circle cx="8.5" cy="140.8" r="2.8" fill="#cfe3ff" fill-opacity="0.96"/><circle cx="544.4" cy="89.5" r="3.4" fill="#cfe3ff" fill-opacity="0.58"/><circle cx="158.3" cy="92.4" r="3.4" fill="#cfe3ff" fill-opacity="0.9"/><circle cx="758.9" cy="29.0" r="2.2" fill="#cfe3ff" fill-opacity="0.95"/><circle cx="826.9" cy="23.4" r="2.8" fill="#cfe3ff" fill-opacity="0.78"/><circle cx="569.4" cy="106.1" r="1.8" fill="#cfe3ff" fill-opacity="0.75"/><circle cx="863.4" cy="52.1" r="2.2" fill="#cfe3ff" fill-opacity="0.9"/><circle cx="320.0" cy="95.8" r="2.2" fill="#cfe3ff" fill-opacity="0.64"/><circle cx="1099.7" cy="34.0" r="1.4" fill="#cfe3ff" fill-opacity="0.87"/><circle cx="1132.1" cy="87.4" r="1.8" fill="#cfe3ff" fill-opacity="0.91"/><circle cx="1066.6" cy="81.0" r="2.8" fill="#cfe3ff" fill-opacity="0.57"/><circle cx="1146.4" cy="59.5" r="2.2" fill="#cfe3ff" fill-opacity="0.94"/><circle cx="1191.0" cy="61.4" r="2.2" fill="#cfe3ff" fill-opacity="0.88"/><circle cx="1037.6" cy="81.7" r="1.8" fill="#cfe3ff" fill-opacity="0.7"/><circle cx="584.6" cy="88.6" r="1.8" fill="#cfe3ff" fill-opacity="0.54"/><circle cx="980.2" cy="57.9" r="2.2" fill="#cfe3ff" fill-opacity="0.65"/><circle cx="157.8" cy="93.9" r="1.4" fill="#cfe3ff" fill-opacity="0.51"/><circle cx="1018.2" cy="84.2" r="2.2" fill="#cfe3ff" fill-opacity="1.0"/><circle cx="1152.5" cy="60.4" r="3.4" fill="#cfe3ff" fill-opacity="0.52"/><circle cx="770.8" cy="72.6" r="2.2" fill="#cfe3ff" fill-opacity="0.97"/><circle cx="368.4" cy="74.4" r="2.2" fill="#cfe3ff" fill-opacity="0.67"/><circle cx="1176.2" cy="58.1" r="2.8" fill="#cfe3ff" fill-opacity="0.78"/><circle cx="644.2" cy="59.1" r="3.4" fill="#cfe3ff" fill-opacity="0.54"/><circle cx="729.4" cy="88.2" r="3.4" fill="#cfe3ff" fill-opacity="1.0"/><circle cx="677.3" cy="56.9" r="1.8" fill="#cfe3ff" fill-opacity="0.85"/><circle cx="834.9" cy="24.7" r="2.8" fill="#cfe3ff" fill-opacity="0.99"/><circle cx="1161.9" cy="65.3" r="1.4" fill="#cfe3ff" fill-opacity="0.56"/><circle cx="571.1" cy="89.5" r="1.4" fill="#cfe3ff" fill-opacity="0.87"/>
<rect width="740" height="160" fill="url(#scrim)"/>
<text x="56" y="80" font-family="Helvetica Neue,Helvetica,Arial,sans-serif" font-size="44" font-weight="700" fill="#f2f7ff">Interactive NotebookLM</text>
<text x="58" y="114" font-family="Helvetica Neue,Helvetica,Arial,sans-serif" font-size="20" fill="#9dc0ff">Ask Mode Identity Theory anything &#8594;</text>
</g>
<rect x="0.5" y="0.5" width="1199" height="159" rx="26" ry="26" fill="none" stroke="#4f7fd4" stroke-opacity="0.35"/>
</svg>